<?xml version="1.0" encoding="utf-8"?>
<!-- Generator: Adobe Illustrator 27.1.1, SVG Export Plug-In . SVG Version: 6.00 Build 0)  -->
<svg version="1.1" id="Layer_1"
	xmlns="http://www.w3.org/2000/svg"
	xmlns:xlink="http://www.w3.org/1999/xlink" x="0px" y="0px" viewBox="0 0 42.4 22" style="enable-background:new 0 0 42.4 22;" xml:space="preserve">
	<style type="text/css">
	.st0{fill:#3652A4;}
	</style>
	<g>
		<path class="st0" d="M28.7,8.4c-0.3-0.2-0.7-0.3-1.1-0.3c-0.4,0-0.9,0.1-1.2,0.4V5.7h-1.4v9.1h1.4v-4.7c0-0.3,0.3-0.7,0.8-0.7
		c0.2,0,0.5,0.1,0.7,0.3c0.2,0.3,0.2,0.6,0.2,1l0,4.2h1.4l0-4.2C29.5,9.3,29.3,8.9,28.7,8.4z"/>
		<path class="st0" d="M16.6,8.1c-1.3,0-2.1,0.8-2.2,2.4c0,0.1,0,0.3,0,1.1c0,0.5,0,1,0,1.1c0.1,1.4,0.9,2.3,2.2,2.3s2.1-0.9,2.2-2.3
		c0-0.1,0-0.5,0-1.1c0-0.2,0-0.9,0-1.1C18.6,8.5,17.5,8.1,16.6,8.1z M17.5,12.8c0,0.5-0.3,1-0.8,1c-0.6,0-0.8-0.6-0.8-1v0
		c0,0,0-0.3,0-1.2c0-0.9,0-1.3,0-1.3c0-0.5,0.3-1,0.8-1s0.8,0.5,0.8,1c0,0,0,0.4,0,1.3C17.5,12.4,17.5,12.7,17.5,12.8z"/>
		<path class="st0" d="M34.8,11.1c0-0.1,0-0.3,0-0.7c0-0.6-0.3-1.2-0.6-1.6c-0.4-0.5-0.9-0.7-1.6-0.7c-1.2,0-2,0.8-2.2,2.4
		c0,0.1,0,0.3,0,1.1c0,0.5,0,1,0,1.1c0.1,1.4,0.9,2.3,2.2,2.3c1.2,0,2.1-0.9,2.2-2.4h-1.3c0,0,0,0.1,0,0.2c0,0.3-0.2,1-0.8,1
		c-0.6,0-0.8-0.5-0.8-1c0-0.1,0-0.3,0-0.9h3.1C34.8,11.9,34.8,11.4,34.8,11.1z M31.7,10.7c0-0.3,0-0.4,0-0.5c0-0.5,0.3-1,0.8-1
		c0.7,0,0.8,0.6,0.8,1c0,0.2,0,0.3,0,0.4H31.7z"/>
		<path class="st0" d="M32.9,0H9.5L0,11l9.5,11h23.4l9.5-10.9L32.9,0z M32.4,21H10l-8.6-9.9l8.6-10h22.3l8.5,10L32.4,21z"/>
		<path class="st0" d="M13.4,12c-0.1-1-0.3-1.6-0.8-1.9c0.4-0.2,0.9-0.8,0.8-1.9c0-1.8-1.1-2.4-2.4-2.4c0,0-2.1,0-2.1,0v9h1.4l0-4.1
		h0.8c0.4,0,0.9,0.4,1,1.5c0,0,0.1,2.1,0.1,2.1c0,0.3,0.1,0.6,0.1,0.6h1.4c0,0-0.1-0.2-0.1-0.6C13.6,14.2,13.4,12,13.4,12z
		 M12.1,8.4c0,0.4-0.2,1.1-1,1.1h-0.7V7H11c0.7,0,1.1,0.4,1.1,1c0,0,0,0.1,0,0.2C12.1,8.3,12.1,8.4,12.1,8.4z"/>
		<path class="st0" d="M22,9.3c0.6,0,0.8,0.5,0.8,1c0,0,0,0.1,0,0.4h1.4c0-0.1,0-0.2,0-0.2C24,8.6,22.9,8.1,22,8.1
		c-1.3,0-2.1,0.8-2.2,2.4c0,0.1,0,0.3,0,1.1c0,0.5,0,1,0,1.1c0.1,1.4,0.9,2.3,2.2,2.3c1.3,0,2.1-0.8,2.2-2.3c0-0.1,0-0.1,0-0.1h-1.4
		c0,0.1,0,0.2,0,0.3c0,0.5-0.2,1-0.8,1c-0.6,0-0.8-0.6-0.8-1c0-0.3,0-0.5,0-1.2c0-0.9,0-1.1,0-1.3C21.2,9.7,21.4,9.3,22,9.3z"/>
	</g>
</svg>
